<?xml version="1.0" encoding="utf-8"?>
<!-- Generator: Adobe Illustrator 17.0.0, SVG Export Plug-In . SVG Version: 6.00 Build 0)  -->
<!DOCTYPE svg PUBLIC "-//W3C//DTD SVG 1.1//EN" "http://www.w3.org/Graphics/SVG/1.1/DTD/svg11.dtd">
<svg version="1.1" id="Layer_1" xmlns="http://www.w3.org/2000/svg" xmlns:xlink="http://www.w3.org/1999/xlink" x="0px" y="0px"
	 width="100px" height="62px" viewBox="0 -0.5 100 62" enable-background="new 0 -0.5 100 62" xml:space="preserve">
<g>
	<path fill="#36302B" d="M15.692,54.369c0.649-0.942,0.974-1.586,0.974-1.932l0,0c0-0.544,2.047-0.979,6.142-1.304l0,0h0.157
		l0.173,0.173l-0.33,2.906v0.157l-4.367,1.618h-0.157C16.828,54.908,15.964,54.369,15.692,54.369L15.692,54.369z M17.624,42.4
		c-3.341,2.336-5.011,3.849-5.011,4.54l0,0c0,0.241,0.272,0.403,0.817,0.487l0,0v0.314h0.471c0.346,0,1.859-1.026,4.54-3.079l0,0
		l5.341,2.104l-0.33,1.791c0,0.293-2.425,0.67-7.272,1.131l0,0c-0.398,0.094-1.425,1.654-3.079,4.681l0,0
		c0,0.723,1.566,2.073,4.697,4.053l0,0h0.644l4.854-1.948h0.314c0.324,0.974,0.596,1.461,0.817,1.461l0,0h0.487l0.314-0.33v-0.157
		l0.487,0.157l0.33-0.314v-0.644l-0.974-3.236l0.974-7.603c-0.44-0.89-2.869-1.973-7.288-3.252l0,0l-0.315,0.33h-0.157l0.157-0.157
		l-0.33-0.33L17.624,42.4L17.624,42.4z"/>
	<path fill="#36302B" d="M54.22,54.369c0.649-0.942,0.974-1.586,0.974-1.932l0,0c0-0.544,2.046-0.979,6.142-1.304l0,0h0.157
		l0.172,0.173l-0.329,2.906v0.157l-4.368,1.618h-0.157C55.356,54.908,54.491,54.369,54.22,54.369L54.22,54.369z M56.152,42.4
		c-3.341,2.336-5.011,3.849-5.011,4.54l0,0c0,0.241,0.273,0.403,0.817,0.487l0,0v0.314h0.471c0.346,0,1.859-1.026,4.539-3.079l0,0
		l5.341,2.104l-0.33,1.791c0,0.293-2.425,0.67-7.272,1.131l0,0c-0.399,0.094-1.424,1.654-3.079,4.681l0,0
		c0,0.723,1.566,2.073,4.697,4.053l0,0h0.643l4.854-1.948h0.314c0.324,0.974,0.597,1.461,0.818,1.461l0,0h0.486l0.314-0.33v-0.157
		l0.487,0.157l0.33-0.314v-0.644l-0.974-3.236l0.974-7.603c-0.44-0.89-2.869-1.973-7.288-3.252l0,0l-0.315,0.33h-0.157l0.157-0.157
		l-0.329-0.33L56.152,42.4L56.152,42.4z"/>
	<path fill="#36302B" d="M75.21,54.369c0.649-0.942,0.974-1.586,0.974-1.932l0,0c0-0.544,2.047-0.979,6.141-1.304l0,0h0.157
		l0.173,0.173l-0.33,2.906v0.157l-4.367,1.618h-0.157C76.345,54.908,75.482,54.369,75.21,54.369L75.21,54.369z M77.142,42.4
		c-3.34,2.336-5.012,3.849-5.012,4.54l0,0c0,0.241,0.273,0.403,0.817,0.487l0,0v0.314h0.472c0.345,0,1.859-1.026,4.539-3.079l0,0
		l5.341,2.104l-0.329,1.791c0,0.293-2.425,0.67-7.273,1.131l0,0c-0.398,0.094-1.425,1.654-3.079,4.681l0,0
		c0,0.723,1.566,2.073,4.696,4.053l0,0h0.644l4.854-1.948h0.314c0.324,0.974,0.597,1.461,0.817,1.461l0,0h0.487l0.314-0.33v-0.157
		l0.487,0.157l0.329-0.314v-0.644l-0.973-3.236l0.973-7.603c-0.439-0.89-2.869-1.973-7.287-3.252l0,0l-0.315,0.33h-0.157
		l0.157-0.157l-0.33-0.33L77.142,42.4L77.142,42.4z"/>
	<path fill="#36302B" d="M69.136,37.338c-0.461,0.218-0.691,0.548-0.691,0.991l0,0L68.1,43.433v0.163l0.173,0.163
		c-0.241,0.948-0.419,3.142-0.534,6.584l0,0l0.173,0.178h-0.173l-0.346,6.91c0,0.532,0.639,0.863,1.917,0.991l0,0h0.188l0.172-0.163
		l1.225-18.288l-0.172-0.163l0.172-1.805c-0.188-0.444-0.597-0.666-1.225-0.666l0,0L69.136,37.338L69.136,37.338z"/>
	<path fill="#36302B" d="M0,38.509l0.724,1.272c2.542,0,4.619-0.055,6.057,0.181l0,0l-0.176,0.901
		C6.358,49.15,6.117,54.037,5.88,55.525l0,0l0.178,0.546L5.88,57.52c0,0.364,0.36,0.665,1.079,0.902l0,0l0.547-0.177h0.177
		l0.177,0.177l0.547-0.355l0.901-18.105l1.271,0.177h1.448l6.148,0.37l0.916-0.177v-0.369l-0.192-0.177
		c0.364,0,0.547-0.123,0.547-0.369l0,0v-0.354l-0.355-0.725c0-0.384-6.062-0.634-18.014-1.097l0,0
		C0.615,37.239,0.256,37.662,0,38.509z"/>
	<path fill="#36302B" d="M98.83,45.447v-0.173c0-0.315-1.733-0.953-5.2-1.916l0,0l-0.692,0.173l-2.78,2.78
		c0-2.544-0.404-3.817-1.21-3.817l0,0c-0.597,0-1.058,0.288-1.383,0.864v0.518c1.078,9.016,1.713,13.524,1.9,13.524l0,0
		l-0.172,0.173l0.69,0.691h0.535l1.209-0.691l-1.037-8.152l3.11-3.456c1.665,0.576,2.879,0.864,3.644,0.864l0,0h0.865
		C98.658,46.756,98.83,46.296,98.83,45.447z"/>
	<path fill="#36302B" d="M44.95,61.5h0.188l0.597-0.581v-8.827l0.189-0.188l0.99,0.188h1.162c0.659,0,1.053-0.194,1.178-0.581l0,0
		v-0.204l-0.189-0.189l0.189-0.204V49.94c-0.085-0.387-0.602-0.581-1.554-0.581l0,0h-1.965v-3.927l0.189-0.188l2.938,0.188
		c0.753,0,1.471-0.262,2.152-0.785l0,0c-0.251-1.299-0.508-1.947-0.77-1.947l0,0h-4.712c-1.823,0-2.733,0.261-2.733,0.785l0,0
		l0.392,0.581c-0.525,0.063-0.786,0.257-0.786,0.581l0,0l0.581,0.785v3.535l-0.393,0.392h-2.937
		c-0.65,0.356-0.973,0.874-0.973,1.555l0,0c0,0.607,0.978,1,2.937,1.178l0,0l0.581-0.188l0.786,0.188v4.712l0.204,4.304h1.178
		L44.95,61.5z"/>
	<path fill="#36302B" d="M32.972,61.5h0.188l0.597-0.581v-8.827l0.189-0.188l0.989,0.188h1.163c0.659,0,1.052-0.194,1.178-0.581l0,0
		v-0.204l-0.189-0.189l0.189-0.204V49.94c-0.084-0.387-0.603-0.581-1.555-0.581l0,0h-1.963v-3.927l0.189-0.188l2.936,0.188
		c0.754,0,1.471-0.262,2.152-0.785l0,0c-0.251-1.299-0.508-1.947-0.77-1.947l0,0h-4.712c-1.822,0-2.733,0.261-2.733,0.785l0,0
		l0.393,0.581c-0.524,0.063-0.785,0.257-0.785,0.581l0,0l0.581,0.785v3.535l-0.394,0.391h-2.936
		c-0.65,0.356-0.974,0.874-0.974,1.555l0,0c0,0.607,0.979,1,2.937,1.178l0,0l0.581-0.188l0.786,0.188v4.712l0.204,4.304h1.178
		L32.972,61.5z"/>
	<path fill="#36302B" d="M61.055,4.696c-0.634,7.023-1.17,12.279-1.517,15.462c-0.145,1.335-0.929,3.063,0.052,3.991
		c1.822,1.722,3.642,3.443,5.462,5.166l0.471-0.034c0.127-0.118,0.229-0.258,0.238-0.314c0.042-0.261,0.858-0.497,1.177-0.764
		c0.094-0.079-0.011-0.18,0.084-0.259c-1.758-2.009-3.516-4.02-5.274-6.029c0.016-0.147-0.338-0.404-0.322-0.552
		c0.016-0.147,0.369,0.126,0.386-0.022c0.567-5.11,1.17-10.532,1.737-15.642c0.11,0.056,0.22,0.113,0.33,0.171
		c0.242,0.082,0.516-0.594,0.679-1.287c0.023-0.097-0.721-0.35,0.062-0.29c0.097,0.008,0.033-0.19,0.046-0.279
		c0.101-0.728,0.009-1.144-0.445-1.219c-1.797-0.822-3.752-1.377-5.822-1.607c-4.987-0.551-9.522,0.9-13.462,3.661
		c-0.628,0.44-0.31,0.751-0.144,1.47c0.324,1.397,0.647,2.795,0.97,4.192c-0.034,0.122,0.608,0.401,0.965,0.095
		c0.046-0.04-0.194-0.125-0.136-0.129c0.247-0.024,0.48,0.208,0.905,0.032c0.463-0.194,0.967-0.303,1.267-0.564
		c0.366-0.352-0.482-2.552-0.565-3.93c2.839-1.593,6.398-2.321,9.881-1.935C59.106,4.193,60.101,4.402,61.055,4.696L61.055,4.696z
		 M61.86,28.851c0.784,0.605,0.301,1.707-0.272,1.627c-0.398-0.056-0.942,0.062-1.299,0.248c-3.104-2.469-5.884-4.599-8.988-7.068
		l-7.911,1.255c-0.294-0.745-0.701-2.179-0.319-2.343l8.119-2.092C51.191,20.477,54.461,23.143,61.86,28.851L61.86,28.851z
		 M40.31,22.867c0.204,0.977,0.503,1.949,0.901,2.905c1.281,3.081,3.481,5.732,6.078,7.459c0.189,0.42-0.55,0.915-1.035,1.05
		c-0.595,0.167-0.717,0.903-1.097,0.878c-2.855-2.004-5.195-4.813-6.633-8.271c-0.8-1.923-1.26-3.903-1.409-5.873
		c-0.128-0.342-0.075-0.654,0.225-0.632c0.5,0.037,2.451-0.984,2.642-0.185l14.73-6.125l0.021,0.686
		c0.139-0.393,0.427-0.687,0.568-1.079c0.861-2.397,1.606-4.883,2.473-7.278c0.257-0.149,0.454-0.124,0.683-0.035
		c0.126,0.049-0.006,0.216,0.134,0.307c0.053,0.033,0.162-0.229,0.22-0.199c0.402,0.215,0.518,0.519,0.849,0.647
		c-0.617,2.389-0.915,4.912-1.532,7.301c-0.226,0.872-0.093,0.888-0.909,1.224C55.315,16.43,49.387,18.889,40.31,22.867
		L40.31,22.867z M45.725,28.907c0,0,0.108-0.846,0.574-1.578c0.737-1.163,1.428-0.752,2.222-0.368
		c0.773,0.371,0.662-0.128,0.962,0.596c0.301,0.722,0.248,0.999-0.491,2.001c-0.74,1.001-1.102,0.689-1.896,0.634
		C46.301,30.135,45.725,28.907,45.725,28.907L45.725,28.907z M52.661,6.367c0,0,1.486,0.809,1.902,1.572
		c0.417,0.763-0.11,0.991-0.22,1.981c-0.109,0.991-0.126,0.488-0.825,0.983c-0.7,0.495-0.527,0.228-1.306,0.141
		c-0.778-0.086-0.967-0.322-1.486-1.454s-0.07-1.297,0.361-1.965C51.521,6.957,52.661,6.367,52.661,6.367z"/>
</g>
<g>
	<path fill="#6BBD45" d="M15.692,52.797c0.649-0.942,0.974-1.586,0.974-1.932l0,0c0-0.544,2.047-0.979,6.142-1.304l0,0h0.157
		l0.173,0.173l-0.33,2.906v0.157l-4.367,1.618h-0.157C16.828,53.336,15.964,52.797,15.692,52.797L15.692,52.797z M17.624,40.828
		c-3.341,2.336-5.011,3.849-5.011,4.54l0,0c0,0.241,0.272,0.403,0.817,0.487l0,0v0.314h0.471c0.346,0,1.859-1.026,4.54-3.079l0,0
		l5.341,2.104l-0.33,1.791c0,0.293-2.425,0.67-7.272,1.131l0,0c-0.398,0.094-1.425,1.654-3.079,4.681l0,0
		c0,0.723,1.566,2.073,4.697,4.053l0,0h0.644l4.854-1.948h0.314c0.324,0.974,0.596,1.461,0.817,1.461l0,0h0.487l0.314-0.33v-0.157
		l0.487,0.157l0.33-0.314v-0.644l-0.974-3.236l0.974-7.603c-0.44-0.89-2.869-1.973-7.288-3.252l0,0l-0.315,0.33h-0.157l0.157-0.157
		l-0.33-0.33L17.624,40.828L17.624,40.828z"/>
	<path fill="#6BBD45" d="M54.22,52.797c0.649-0.942,0.974-1.586,0.974-1.932l0,0c0-0.544,2.046-0.979,6.142-1.304l0,0h0.157
		l0.172,0.173l-0.329,2.906v0.157l-4.368,1.618h-0.157C55.356,53.336,54.491,52.797,54.22,52.797L54.22,52.797z M56.152,40.828
		c-3.341,2.336-5.011,3.849-5.011,4.54l0,0c0,0.241,0.273,0.403,0.817,0.487l0,0v0.314h0.471c0.346,0,1.859-1.026,4.539-3.079l0,0
		l5.341,2.104l-0.33,1.791c0,0.293-2.425,0.67-7.272,1.131l0,0c-0.399,0.094-1.424,1.654-3.079,4.681l0,0
		c0,0.723,1.566,2.073,4.697,4.053l0,0h0.643l4.854-1.948h0.314c0.324,0.974,0.597,1.461,0.818,1.461l0,0h0.486l0.314-0.33v-0.157
		l0.487,0.157l0.33-0.314v-0.644l-0.974-3.236l0.974-7.603c-0.44-0.89-2.869-1.973-7.288-3.252l0,0l-0.315,0.33h-0.157l0.157-0.157
		l-0.329-0.33L56.152,40.828L56.152,40.828z"/>
	<path fill="#6BBD45" d="M75.21,52.797c0.649-0.942,0.974-1.586,0.974-1.932l0,0c0-0.544,2.047-0.979,6.141-1.304l0,0h0.157
		l0.173,0.173l-0.33,2.906v0.157l-4.367,1.618h-0.157C76.345,53.336,75.482,52.797,75.21,52.797L75.21,52.797z M77.142,40.828
		c-3.34,2.336-5.012,3.849-5.012,4.54l0,0c0,0.241,0.273,0.403,0.817,0.487l0,0v0.314h0.472c0.345,0,1.859-1.026,4.539-3.079l0,0
		l5.341,2.104l-0.329,1.791c0,0.293-2.425,0.67-7.273,1.131l0,0c-0.398,0.094-1.425,1.654-3.079,4.681l0,0
		c0,0.723,1.566,2.073,4.696,4.053l0,0h0.644l4.854-1.948h0.314c0.324,0.974,0.597,1.461,0.817,1.461l0,0h0.487l0.314-0.33v-0.157
		l0.487,0.157l0.329-0.314v-0.644l-0.973-3.236l0.973-7.603c-0.439-0.89-2.869-1.973-7.287-3.252l0,0l-0.315,0.33h-0.157
		l0.157-0.157l-0.33-0.33L77.142,40.828L77.142,40.828z"/>
	<path fill="#6BBD45" d="M69.136,35.766c-0.461,0.218-0.691,0.548-0.691,0.991l0,0L68.1,41.861v0.163l0.173,0.163
		c-0.241,0.948-0.419,3.142-0.534,6.584l0,0l0.173,0.178h-0.173l-0.346,6.91c0,0.532,0.639,0.863,1.917,0.991l0,0h0.188l0.172-0.163
		l1.225-18.288l-0.172-0.163l0.172-1.805c-0.188-0.444-0.597-0.666-1.225-0.666l0,0L69.136,35.766L69.136,35.766z"/>
	<path fill="#6BBD45" d="M0,36.937l0.724,1.272c2.542,0,4.619-0.055,6.057,0.181l0,0l-0.176,0.901
		C6.358,47.578,6.117,52.465,5.88,53.953l0,0l0.178,0.546L5.88,55.948c0,0.364,0.36,0.665,1.079,0.902l0,0l0.547-0.177h0.177
		L7.86,56.85l0.547-0.355L9.308,38.39l1.271,0.177h1.448l6.148,0.37l0.916-0.177v-0.369l-0.192-0.177
		c0.364,0,0.547-0.123,0.547-0.369l0,0v-0.354l-0.355-0.725c0-0.384-6.062-0.634-18.014-1.097l0,0
		C0.615,35.667,0.256,36.09,0,36.937z"/>
	<path fill="#6BBD45" d="M98.83,43.875v-0.173c0-0.315-1.733-0.953-5.2-1.916l0,0l-0.692,0.173l-2.78,2.78
		c0-2.544-0.404-3.817-1.21-3.817l0,0c-0.597,0-1.058,0.288-1.383,0.864v0.518c1.078,9.016,1.713,13.524,1.9,13.524l0,0l-0.17,0.174
		l0.69,0.691h0.535l1.209-0.691l-1.037-8.152l3.11-3.456c1.665,0.576,2.879,0.864,3.644,0.864l0,0h0.865
		C98.658,45.184,98.83,44.724,98.83,43.875z"/>
	<path fill="#6BBD45" d="M44.95,59.928h0.188l0.597-0.581V50.52l0.189-0.188l0.99,0.188h1.162c0.659,0,1.053-0.194,1.178-0.581l0,0
		v-0.204l-0.189-0.189l0.189-0.204v-0.974c-0.085-0.387-0.602-0.581-1.554-0.581l0,0h-1.965V43.86l0.189-0.188l2.938,0.188
		c0.753,0,1.471-0.262,2.152-0.785l0,0c-0.251-1.299-0.508-1.947-0.77-1.947l0,0h-4.712c-1.823,0-2.733,0.261-2.733,0.785l0,0
		l0.392,0.581c-0.525,0.063-0.786,0.257-0.786,0.581l0,0l0.581,0.785v3.535l-0.393,0.392h-2.937
		c-0.65,0.356-0.973,0.874-0.973,1.555l0,0c0,0.607,0.978,1,2.937,1.178l0,0l0.581-0.188l0.786,0.188v4.712l0.204,4.304h1.178
		L44.95,59.928z"/>
	<path fill="#6BBD45" d="M32.972,59.928h0.188l0.597-0.581V50.52l0.189-0.188l0.989,0.188h1.163c0.659,0,1.052-0.194,1.178-0.581
		l0,0v-0.204l-0.189-0.189l0.189-0.204v-0.974c-0.084-0.387-0.603-0.581-1.555-0.581l0,0h-1.963V43.86l0.189-0.188l2.936,0.188
		c0.754,0,1.471-0.262,2.152-0.785l0,0c-0.251-1.299-0.508-1.947-0.77-1.947l0,0h-4.712c-1.822,0-2.733,0.261-2.733,0.785l0,0
		l0.393,0.581c-0.524,0.063-0.785,0.257-0.785,0.581l0,0l0.581,0.785v3.535l-0.394,0.392h-2.936
		c-0.65,0.356-0.974,0.874-0.974,1.555l0,0c0,0.607,0.979,1,2.937,1.178l0,0l0.581-0.188l0.786,0.188v4.712l0.204,4.304h1.178
		L32.972,59.928z"/>
	<path fill="#6BBD45" d="M61.055,3.124c-0.634,7.023-1.17,12.279-1.517,15.462c-0.145,1.335-0.929,3.063,0.052,3.991
		c1.822,1.722,3.642,3.443,5.462,5.166l0.471-0.034c0.127-0.118,0.229-0.258,0.238-0.314c0.042-0.261,0.858-0.497,1.177-0.764
		c0.094-0.079-0.011-0.18,0.084-0.259c-1.758-2.009-3.516-4.02-5.274-6.029c0.016-0.147-0.338-0.404-0.322-0.552
		c0.016-0.147,0.369,0.126,0.386-0.022c0.567-5.11,1.17-10.532,1.737-15.642c0.11,0.056,0.22,0.113,0.33,0.171
		c0.242,0.082,0.516-0.594,0.679-1.287c0.023-0.097-0.721-0.35,0.062-0.29c0.097,0.008,0.033-0.19,0.046-0.279
		c0.101-0.728,0.009-1.144-0.445-1.219c-1.797-0.822-3.752-1.377-5.822-1.607c-4.987-0.551-9.522,0.9-13.462,3.661
		c-0.628,0.44-0.31,0.751-0.144,1.47c0.324,1.397,0.647,2.795,0.97,4.192c-0.034,0.122,0.608,0.401,0.965,0.095
		c0.046-0.04-0.194-0.125-0.136-0.129c0.247-0.024,0.48,0.208,0.905,0.032c0.463-0.194,0.967-0.303,1.267-0.564
		c0.366-0.352-0.482-2.552-0.565-3.93c2.839-1.593,6.398-2.321,9.881-1.935C59.106,2.621,60.101,2.83,61.055,3.124L61.055,3.124z
		 M61.86,27.279c0.784,0.605,0.301,1.707-0.272,1.627c-0.398-0.056-0.942,0.062-1.299,0.248c-3.104-2.469-5.884-4.599-8.988-7.068
		l-7.911,1.255c-0.294-0.745-0.701-2.179-0.319-2.343l8.119-2.092C51.191,18.906,54.461,21.571,61.86,27.279L61.86,27.279z
		 M40.31,21.295c0.204,0.977,0.503,1.949,0.901,2.905c1.281,3.081,3.481,5.732,6.078,7.459c0.189,0.42-0.55,0.915-1.035,1.05
		c-0.595,0.167-0.717,0.903-1.097,0.878c-2.855-2.004-5.195-4.813-6.633-8.271c-0.8-1.923-1.26-3.903-1.409-5.873
		c-0.128-0.342-0.075-0.654,0.225-0.632c0.5,0.037,2.451-0.984,2.642-0.185l14.73-6.125l0.021,0.686
		c0.139-0.393,0.427-0.687,0.568-1.079c0.861-2.397,1.606-4.883,2.473-7.278c0.257-0.149,0.454-0.124,0.683-0.035
		c0.126,0.049-0.006,0.216,0.134,0.307c0.053,0.033,0.162-0.229,0.22-0.199c0.402,0.215,0.518,0.519,0.849,0.647
		c-0.617,2.389-0.915,4.912-1.532,7.301c-0.226,0.872-0.093,0.888-0.909,1.224C55.315,14.858,49.387,17.317,40.31,21.295
		L40.31,21.295z M45.725,27.335c0,0,0.108-0.846,0.574-1.578c0.737-1.163,1.428-0.752,2.222-0.368
		c0.773,0.371,0.662-0.128,0.962,0.596c0.301,0.722,0.248,0.999-0.491,2.001c-0.74,1.001-1.102,0.689-1.896,0.634
		C46.301,28.563,45.725,27.335,45.725,27.335L45.725,27.335z M52.661,4.796c0,0,1.486,0.809,1.902,1.572
		c0.417,0.763-0.11,0.991-0.22,1.981c-0.109,0.991-0.126,0.488-0.825,0.983c-0.7,0.495-0.527,0.228-1.306,0.141
		c-0.778-0.086-0.967-0.322-1.486-1.454s-0.07-1.297,0.361-1.965C51.521,5.385,52.661,4.796,52.661,4.796z"/>
</g>
</svg>
